<svg width="154" height="210" viewBox="0 0 154 210" fill="none" xmlns="http://www.w3.org/2000/svg">
<g filter="url(#filter0_d_1_3)">
<path d="M56.1719 205H13.4219L13.7031 182.922H56.1719C70.7969 182.922 82.9844 179.875 92.7344 173.781C102.484 167.594 109.797 158.969 114.672 147.906C119.641 136.75 122.125 123.719 122.125 108.812V96.2969C122.125 84.5781 120.719 74.1719 117.906 65.0781C115.094 55.8906 110.969 48.1563 105.531 41.875C100.094 35.5 93.4375 30.6719 85.5625 27.3906C77.7812 24.1094 68.8281 22.4688 58.7031 22.4688H12.5781V0.25H58.7031C72.1094 0.25 84.3438 2.5 95.4062 7C106.469 11.4062 115.984 17.8281 123.953 26.2656C132.016 34.6094 138.203 44.7344 142.516 56.6406C146.828 68.4531 148.984 81.7656 148.984 96.5781V108.812C148.984 123.625 146.828 136.984 142.516 148.891C138.203 160.703 131.969 170.781 123.812 179.125C115.75 187.469 106 193.891 94.5625 198.391C83.2188 202.797 70.4219 205 56.1719 205ZM27.9062 0.25V205H0.765625V0.25H27.9062Z" fill="#FD2155"/>
</g>
<defs>
<filter id="filter0_d_1_3" x="0.765625" y="0.25" width="153.219" height="209.75" filterUnits="userSpaceOnUse" color-interpolation-filters="sRGB">
<feFlood flood-opacity="0" result="BackgroundImageFix"/>
<feColorMatrix in="SourceAlpha" type="matrix" values="0 0 0 0 0 0 0 0 0 0 0 0 0 0 0 0 0 0 127 0" result="hardAlpha"/>
<feOffset dx="5" dy="5"/>
<feComposite in2="hardAlpha" operator="out"/>
<feColorMatrix type="matrix" values="0 0 0 0 0.0196078 0 0 0 0 0.992157 0 0 0 0 0.847059 0 0 0 1 0"/>
<feBlend mode="normal" in2="BackgroundImageFix" result="effect1_dropShadow_1_3"/>
<feBlend mode="normal" in="SourceGraphic" in2="effect1_dropShadow_1_3" result="shape"/>
</filter>
</defs>
</svg>
